# xmcd
#
# Track frame offsets: 
#        150
#        16523
#        33362
#        51465
#        68781
#        86045
#        102083
#        118353
#        133790
#        160399
#        175294
#        204007
#        221675
#        237794
#        267540
#
# Disc length: 3787 seconds
#
# Revision: 0
# Processed by: cddbd v1.5.2PL0 Copyright (c) Steve Scherf et al.
# Submitted via: ExactAudioCopy v1.0b3
#
DISCID=d40ec90f
DTITLE=Various Artist - The World Of Power Trance CD 1
DYEAR=1900
DGENRE=
TTITLE0=DJ Sputnik - All The Things She Said (Radio Edit)
TTITLE1=Floorfilla - Technoromance (Pulsedriver Remix Radio Edit)
TTITLE2=Ace Project - Summer Of Love (Single Mix)
TTITLE3=Marco Dejonge Feat. Ice MC - Think About The Way 2002 (Villa +
TTITLE3=Gant Radio Mix)
TTITLE4=Clubzone Feat. Alicia - Rainy Day (Trance Single)
TTITLE5=Urban Voodoo - Humanity (Radio Cut)
TTITLE6=DJ Melvin - Set U Free (Radio Edit)
TTITLE7=G-Spott - N-R-G (Radio Version)
TTITLE8=Acer - The Mixmaster (Marc Van Linden Remix)
TTITLE9=KMC Feat. Dhany - I Feel So Fine (Radio Edit)
TTITLE10=Jack D. Elliot With Wendy Phillips And Jemma Elliot - You Mak
TTITLE10=e Me Want To Dance (Dub Mix)
TTITLE11=Kiki - We Belong (Club Cut)
TTITLE12=Glamrock - Crucified (Radio Edit)
TTITLE13=Giorgio Ponticelli - I Am The Master (Remix Extended Version)
TTITLE14=Phil Dinner - Feel The Light (Radio Edit)
EXTD=
EXTT0=
EXTT1=
EXTT2=
EXTT3=
EXTT4=
EXTT5=
EXTT6=
EXTT7=
EXTT8=
EXTT9=
EXTT10=
EXTT11=
EXTT12=
EXTT13=
EXTT14=
PLAYORDER=
